<?xml version="1.0" encoding="UTF-8" standalone="no"?>
<!DOCTYPE svg PUBLIC "-//W3C//DTD SVG 1.1//EN"
 "http://www.w3.org/Graphics/SVG/1.1/DTD/svg11.dtd">
<!-- Generated by graphviz version 2.34.0 (20130910.2120)
 -->
<!-- Title: /Users/lnf/Documents/Whiteboard/whiteboard/MyViewController.m Pages: 1 -->
<svg width="253pt" height="218pt"
 viewBox="0.00 0.00 253.00 218.00" xmlns="http://www.w3.org/2000/svg" xmlns:xlink="http://www.w3.org/1999/xlink">
<g id="graph0" class="graph" transform="scale(1 1) rotate(0) translate(4 214)">
<title>/Users/lnf/Documents/Whiteboard/whiteboard/MyViewController.m</title>
<polygon fill="white" stroke="white" points="-4,4 -4,-214 249,-214 249,4 -4,4"/>
<!-- Node1 -->
<g id="node1" class="node"><title>Node1</title>
<polygon fill="#bfbfbf" stroke="black" points="66.5,-168.5 66.5,-209.5 185.5,-209.5 185.5,-168.5 66.5,-168.5"/>
<text text-anchor="start" x="74.5" y="-197.5" font-family="Helvetica,sans-Serif" font-size="10.00">/Users/lnf/Documents</text>
<text text-anchor="start" x="74.5" y="-186.5" font-family="Helvetica,sans-Serif" font-size="10.00">/Whiteboard/whiteboard</text>
<text text-anchor="middle" x="126" y="-175.5" font-family="Helvetica,sans-Serif" font-size="10.00">/MyViewController.m</text>
</g>
<!-- Node2 -->
<g id="node2" class="node"><title>Node2</title>
<g id="a_node2"><a xlink:href="_my_view_controller_8h.html" target="_top" xlink:title="MyViewController.h">
<polygon fill="white" stroke="black" points="0,-112.5 0,-131.5 98,-131.5 98,-112.5 0,-112.5"/>
<text text-anchor="middle" x="49" y="-119.5" font-family="Helvetica,sans-Serif" font-size="10.00">MyViewController.h</text>
</a>
</g>
</g>
<!-- Node1&#45;&gt;Node2 -->
<g id="edge1" class="edge"><title>Node1&#45;&gt;Node2</title>
<path fill="none" stroke="midnightblue" d="M102.897,-168.498C91.4325,-158.82 77.7864,-147.3 67.0938,-138.274"/>
<polygon fill="midnightblue" stroke="midnightblue" points="69.149,-135.429 59.2499,-131.652 64.6336,-140.778 69.149,-135.429"/>
</g>
<!-- Node4 -->
<g id="node4" class="node"><title>Node4</title>
<g id="a_node4"><a xlink:href="_w_b_user_8h.html" target="_top" xlink:title="WBUser.h">
<polygon fill="white" stroke="black" points="112,-56.5 112,-75.5 172,-75.5 172,-56.5 112,-56.5"/>
<text text-anchor="middle" x="142" y="-63.5" font-family="Helvetica,sans-Serif" font-size="10.00">WBUser.h</text>
</a>
</g>
</g>
<!-- Node1&#45;&gt;Node4 -->
<g id="edge3" class="edge"><title>Node1&#45;&gt;Node4</title>
<path fill="none" stroke="midnightblue" d="M128.606,-168.29C131.623,-145.48 136.554,-108.189 139.517,-85.7807"/>
<polygon fill="midnightblue" stroke="midnightblue" points="143.025,-85.9474 140.866,-75.5748 136.085,-85.0297 143.025,-85.9474"/>
</g>
<!-- Node6 -->
<g id="node6" class="node"><title>Node6</title>
<g id="a_node6"><a xlink:href="_w_b_user_factory_8h.html" target="_top" xlink:title="WBUserFactory.h">
<polygon fill="white" stroke="black" points="154.5,-112.5 154.5,-131.5 245.5,-131.5 245.5,-112.5 154.5,-112.5"/>
<text text-anchor="middle" x="200" y="-119.5" font-family="Helvetica,sans-Serif" font-size="10.00">WBUserFactory.h</text>
</a>
</g>
</g>
<!-- Node1&#45;&gt;Node6 -->
<g id="edge5" class="edge"><title>Node1&#45;&gt;Node6</title>
<path fill="none" stroke="midnightblue" d="M148.202,-168.498C159.221,-158.82 172.335,-147.3 182.611,-138.274"/>
<polygon fill="midnightblue" stroke="midnightblue" points="184.946,-140.882 190.149,-131.652 180.326,-135.622 184.946,-140.882"/>
</g>
<!-- Node3 -->
<g id="node3" class="node"><title>Node3</title>
<polygon fill="white" stroke="#bfbfbf" points="16,-56.5 16,-75.5 82,-75.5 82,-56.5 16,-56.5"/>
<text text-anchor="middle" x="49" y="-63.5" font-family="Helvetica,sans-Serif" font-size="10.00">UIKit/UIKit.h</text>
</g>
<!-- Node2&#45;&gt;Node3 -->
<g id="edge2" class="edge"><title>Node2&#45;&gt;Node3</title>
<path fill="none" stroke="midnightblue" d="M49,-112.083C49,-105.006 49,-94.8611 49,-85.9865"/>
<polygon fill="midnightblue" stroke="midnightblue" points="52.5001,-85.751 49,-75.7511 45.5001,-85.7511 52.5001,-85.751"/>
</g>
<!-- Node5 -->
<g id="node5" class="node"><title>Node5</title>
<polygon fill="white" stroke="#bfbfbf" points="111,-0.5 111,-19.5 231,-19.5 231,-0.5 111,-0.5"/>
<text text-anchor="middle" x="171" y="-7.5" font-family="Helvetica,sans-Serif" font-size="10.00">Foundation/Foundation.h</text>
</g>
<!-- Node4&#45;&gt;Node5 -->
<g id="edge4" class="edge"><title>Node4&#45;&gt;Node5</title>
<path fill="none" stroke="midnightblue" d="M146.789,-56.083C150.758,-48.6913 156.525,-37.9533 161.435,-28.8111"/>
<polygon fill="midnightblue" stroke="midnightblue" points="164.653,-30.217 166.3,-19.7511 158.486,-26.9051 164.653,-30.217"/>
</g>
<!-- Node6&#45;&gt;Node4 -->
<g id="edge7" class="edge"><title>Node6&#45;&gt;Node4</title>
<path fill="none" stroke="midnightblue" d="M190.681,-112.324C182.107,-104.341 169.188,-92.3128 158.812,-82.6529"/>
<polygon fill="midnightblue" stroke="midnightblue" points="161.192,-80.0865 151.488,-75.8339 156.422,-85.2098 161.192,-80.0865"/>
</g>
<!-- Node6&#45;&gt;Node5 -->
<g id="edge6" class="edge"><title>Node6&#45;&gt;Node5</title>
<path fill="none" stroke="midnightblue" d="M197.724,-112.368C193.023,-94.5366 182.151,-53.2953 175.817,-29.2717"/>
<polygon fill="midnightblue" stroke="midnightblue" points="179.199,-28.3688 173.265,-19.5914 172.43,-30.1533 179.199,-28.3688"/>
</g>
</g>
</svg>
