<?xml version="1.0" encoding="UTF-8" standalone="no"?>
<!DOCTYPE svg PUBLIC "-//W3C//DTD SVG 1.1//EN"
 "http://www.w3.org/Graphics/SVG/1.1/DTD/svg11.dtd">
<!-- Generated by graphviz version 2.34.0 (20130910.2120)
 -->
<!-- Title: /Users/lnf/Documents/Whiteboard/whiteboard/WBDataSource.h Pages: 1 -->
<svg width="400pt" height="206pt"
 viewBox="0.00 0.00 400.00 206.00" xmlns="http://www.w3.org/2000/svg" xmlns:xlink="http://www.w3.org/1999/xlink">
<g id="graph0" class="graph" transform="scale(1 1) rotate(0) translate(4 202)">
<title>/Users/lnf/Documents/Whiteboard/whiteboard/WBDataSource.h</title>
<polygon fill="white" stroke="white" points="-4,4 -4,-202 396,-202 396,4 -4,4"/>
<!-- Node1 -->
<g id="node1" class="node"><title>Node1</title>
<polygon fill="#bfbfbf" stroke="black" points="136.5,-156.5 136.5,-197.5 255.5,-197.5 255.5,-156.5 136.5,-156.5"/>
<text text-anchor="start" x="144.5" y="-185.5" font-family="Helvetica,sans-Serif" font-size="10.00">/Users/lnf/Documents</text>
<text text-anchor="start" x="144.5" y="-174.5" font-family="Helvetica,sans-Serif" font-size="10.00">/Whiteboard/whiteboard</text>
<text text-anchor="middle" x="196" y="-163.5" font-family="Helvetica,sans-Serif" font-size="10.00">/WBDataSource.h</text>
</g>
<!-- Node2 -->
<g id="node2" class="node"><title>Node2</title>
<g id="a_node2"><a xlink:href="main_8m.html" target="_top" xlink:title="/Users/lnf/Documents\l/Whiteboard/whiteboard\l/main.m">
<polygon fill="white" stroke="black" points="-0.5,-78.5 -0.5,-119.5 118.5,-119.5 118.5,-78.5 -0.5,-78.5"/>
<text text-anchor="start" x="7.5" y="-107.5" font-family="Helvetica,sans-Serif" font-size="10.00">/Users/lnf/Documents</text>
<text text-anchor="start" x="7.5" y="-96.5" font-family="Helvetica,sans-Serif" font-size="10.00">/Whiteboard/whiteboard</text>
<text text-anchor="middle" x="59" y="-85.5" font-family="Helvetica,sans-Serif" font-size="10.00">/main.m</text>
</a>
</g>
</g>
<!-- Node1&#45;&gt;Node2 -->
<g id="edge1" class="edge"><title>Node1&#45;&gt;Node2</title>
<path fill="none" stroke="midnightblue" d="M151.81,-151.486C133.149,-141.134 111.722,-129.247 94.1613,-119.506"/>
<polygon fill="midnightblue" stroke="midnightblue" points="150.277,-154.638 160.719,-156.428 153.672,-148.516 150.277,-154.638"/>
</g>
<!-- Node3 -->
<g id="node3" class="node"><title>Node3</title>
<g id="a_node3"><a xlink:href="_parse_data_source_8h.html" target="_top" xlink:title="/Users/lnf/Documents\l/Whiteboard/whiteboard\l/ParseDataSource.h">
<polygon fill="white" stroke="black" points="136.5,-78.5 136.5,-119.5 255.5,-119.5 255.5,-78.5 136.5,-78.5"/>
<text text-anchor="start" x="144.5" y="-107.5" font-family="Helvetica,sans-Serif" font-size="10.00">/Users/lnf/Documents</text>
<text text-anchor="start" x="144.5" y="-96.5" font-family="Helvetica,sans-Serif" font-size="10.00">/Whiteboard/whiteboard</text>
<text text-anchor="middle" x="196" y="-85.5" font-family="Helvetica,sans-Serif" font-size="10.00">/ParseDataSource.h</text>
</a>
</g>
</g>
<!-- Node1&#45;&gt;Node3 -->
<g id="edge2" class="edge"><title>Node1&#45;&gt;Node3</title>
<path fill="none" stroke="midnightblue" d="M196,-146.297C196,-137.301 196,-127.653 196,-119.506"/>
<polygon fill="midnightblue" stroke="midnightblue" points="192.5,-146.428 196,-156.428 199.5,-146.428 192.5,-146.428"/>
</g>
<!-- Node5 -->
<g id="node5" class="node"><title>Node5</title>
<g id="a_node5"><a xlink:href="_w_b_data_source_8m.html" target="_top" xlink:title="/Users/lnf/Documents\l/Whiteboard/whiteboard\l/WBDataSource.m">
<polygon fill="white" stroke="black" points="273.5,-78.5 273.5,-119.5 392.5,-119.5 392.5,-78.5 273.5,-78.5"/>
<text text-anchor="start" x="281.5" y="-107.5" font-family="Helvetica,sans-Serif" font-size="10.00">/Users/lnf/Documents</text>
<text text-anchor="start" x="281.5" y="-96.5" font-family="Helvetica,sans-Serif" font-size="10.00">/Whiteboard/whiteboard</text>
<text text-anchor="middle" x="333" y="-85.5" font-family="Helvetica,sans-Serif" font-size="10.00">/WBDataSource.m</text>
</a>
</g>
</g>
<!-- Node1&#45;&gt;Node5 -->
<g id="edge4" class="edge"><title>Node1&#45;&gt;Node5</title>
<path fill="none" stroke="midnightblue" d="M240.19,-151.486C258.851,-141.134 280.278,-129.247 297.839,-119.506"/>
<polygon fill="midnightblue" stroke="midnightblue" points="238.328,-148.516 231.281,-156.428 241.723,-154.638 238.328,-148.516"/>
</g>
<!-- Node4 -->
<g id="node4" class="node"><title>Node4</title>
<g id="a_node4"><a xlink:href="_parse_data_source_8m.html" target="_top" xlink:title="/Users/lnf/Documents\l/Whiteboard/whiteboard\l/ParseDataSource.m">
<polygon fill="white" stroke="black" points="136.5,-0.5 136.5,-41.5 255.5,-41.5 255.5,-0.5 136.5,-0.5"/>
<text text-anchor="start" x="144.5" y="-29.5" font-family="Helvetica,sans-Serif" font-size="10.00">/Users/lnf/Documents</text>
<text text-anchor="start" x="144.5" y="-18.5" font-family="Helvetica,sans-Serif" font-size="10.00">/Whiteboard/whiteboard</text>
<text text-anchor="middle" x="196" y="-7.5" font-family="Helvetica,sans-Serif" font-size="10.00">/ParseDataSource.m</text>
</a>
</g>
</g>
<!-- Node3&#45;&gt;Node4 -->
<g id="edge3" class="edge"><title>Node3&#45;&gt;Node4</title>
<path fill="none" stroke="midnightblue" d="M196,-68.2965C196,-59.3009 196,-49.6532 196,-41.5056"/>
<polygon fill="midnightblue" stroke="midnightblue" points="192.5,-68.4281 196,-78.4281 199.5,-68.4281 192.5,-68.4281"/>
</g>
</g>
</svg>
