<?xml version="1.0" encoding="UTF-8" standalone="no"?>
<!DOCTYPE svg PUBLIC "-//W3C//DTD SVG 1.1//EN"
 "http://www.w3.org/Graphics/SVG/1.1/DTD/svg11.dtd">
<!-- Generated by graphviz version 2.34.0 (20130910.2120)
 -->
<!-- Title: /Users/lnf/Documents/Whiteboard/whiteboard/WBUserFactory.h Pages: 1 -->
<svg width="537pt" height="128pt"
 viewBox="0.00 0.00 537.00 128.00" xmlns="http://www.w3.org/2000/svg" xmlns:xlink="http://www.w3.org/1999/xlink">
<g id="graph0" class="graph" transform="scale(1 1) rotate(0) translate(4 124)">
<title>/Users/lnf/Documents/Whiteboard/whiteboard/WBUserFactory.h</title>
<polygon fill="white" stroke="white" points="-4,4 -4,-124 533,-124 533,4 -4,4"/>
<!-- Node1 -->
<g id="node1" class="node"><title>Node1</title>
<polygon fill="#bfbfbf" stroke="black" points="204.5,-78.5 204.5,-119.5 323.5,-119.5 323.5,-78.5 204.5,-78.5"/>
<text text-anchor="start" x="212.5" y="-107.5" font-family="Helvetica,sans-Serif" font-size="10.00">/Users/lnf/Documents</text>
<text text-anchor="start" x="212.5" y="-96.5" font-family="Helvetica,sans-Serif" font-size="10.00">/Whiteboard/whiteboard</text>
<text text-anchor="middle" x="264" y="-85.5" font-family="Helvetica,sans-Serif" font-size="10.00">/WBUserFactory.h</text>
</g>
<!-- Node2 -->
<g id="node2" class="node"><title>Node2</title>
<g id="a_node2"><a xlink:href="main_8m.html" target="_top" xlink:title="/Users/lnf/Documents\l/Whiteboard/whiteboard\l/main.m">
<polygon fill="white" stroke="black" points="-0.5,-0.5 -0.5,-41.5 118.5,-41.5 118.5,-0.5 -0.5,-0.5"/>
<text text-anchor="start" x="7.5" y="-29.5" font-family="Helvetica,sans-Serif" font-size="10.00">/Users/lnf/Documents</text>
<text text-anchor="start" x="7.5" y="-18.5" font-family="Helvetica,sans-Serif" font-size="10.00">/Whiteboard/whiteboard</text>
<text text-anchor="middle" x="59" y="-7.5" font-family="Helvetica,sans-Serif" font-size="10.00">/main.m</text>
</a>
</g>
</g>
<!-- Node1&#45;&gt;Node2 -->
<g id="edge1" class="edge"><title>Node1&#45;&gt;Node2</title>
<path fill="none" stroke="midnightblue" d="M201.657,-74.8874C172.879,-64.2185 139.085,-51.6901 111.614,-41.5056"/>
<polygon fill="midnightblue" stroke="midnightblue" points="200.614,-78.2337 211.207,-78.4281 203.048,-71.6702 200.614,-78.2337"/>
</g>
<!-- Node3 -->
<g id="node3" class="node"><title>Node3</title>
<g id="a_node3"><a xlink:href="_my_view_controller_8m.html" target="_top" xlink:title="/Users/lnf/Documents\l/Whiteboard/whiteboard\l/MyViewController.m">
<polygon fill="white" stroke="black" points="136.5,-0.5 136.5,-41.5 255.5,-41.5 255.5,-0.5 136.5,-0.5"/>
<text text-anchor="start" x="144.5" y="-29.5" font-family="Helvetica,sans-Serif" font-size="10.00">/Users/lnf/Documents</text>
<text text-anchor="start" x="144.5" y="-18.5" font-family="Helvetica,sans-Serif" font-size="10.00">/Whiteboard/whiteboard</text>
<text text-anchor="middle" x="196" y="-7.5" font-family="Helvetica,sans-Serif" font-size="10.00">/MyViewController.m</text>
</a>
</g>
</g>
<!-- Node1&#45;&gt;Node3 -->
<g id="edge2" class="edge"><title>Node1&#45;&gt;Node3</title>
<path fill="none" stroke="midnightblue" d="M239.767,-70.9158C231.076,-61.2029 221.455,-50.4502 213.452,-41.5056"/>
<polygon fill="midnightblue" stroke="midnightblue" points="237.212,-73.3095 246.488,-78.4281 242.429,-68.6419 237.212,-73.3095"/>
</g>
<!-- Node4 -->
<g id="node4" class="node"><title>Node4</title>
<g id="a_node4"><a xlink:href="_parse_data_source_8m.html" target="_top" xlink:title="/Users/lnf/Documents\l/Whiteboard/whiteboard\l/ParseDataSource.m">
<polygon fill="white" stroke="black" points="273.5,-0.5 273.5,-41.5 392.5,-41.5 392.5,-0.5 273.5,-0.5"/>
<text text-anchor="start" x="281.5" y="-29.5" font-family="Helvetica,sans-Serif" font-size="10.00">/Users/lnf/Documents</text>
<text text-anchor="start" x="281.5" y="-18.5" font-family="Helvetica,sans-Serif" font-size="10.00">/Whiteboard/whiteboard</text>
<text text-anchor="middle" x="333" y="-7.5" font-family="Helvetica,sans-Serif" font-size="10.00">/ParseDataSource.m</text>
</a>
</g>
</g>
<!-- Node1&#45;&gt;Node4 -->
<g id="edge3" class="edge"><title>Node1&#45;&gt;Node4</title>
<path fill="none" stroke="midnightblue" d="M288.59,-70.9158C297.408,-61.2029 307.17,-50.4502 315.291,-41.5056"/>
<polygon fill="midnightblue" stroke="midnightblue" points="285.9,-68.6716 281.769,-78.4281 291.082,-73.3769 285.9,-68.6716"/>
</g>
<!-- Node5 -->
<g id="node5" class="node"><title>Node5</title>
<g id="a_node5"><a xlink:href="_w_b_user_factory_8m.html" target="_top" xlink:title="/Users/lnf/Documents\l/Whiteboard/whiteboard\l/WBUserFactory.m">
<polygon fill="white" stroke="black" points="410.5,-0.5 410.5,-41.5 529.5,-41.5 529.5,-0.5 410.5,-0.5"/>
<text text-anchor="start" x="418.5" y="-29.5" font-family="Helvetica,sans-Serif" font-size="10.00">/Users/lnf/Documents</text>
<text text-anchor="start" x="418.5" y="-18.5" font-family="Helvetica,sans-Serif" font-size="10.00">/Whiteboard/whiteboard</text>
<text text-anchor="middle" x="470" y="-7.5" font-family="Helvetica,sans-Serif" font-size="10.00">/WBUserFactory.m</text>
</a>
</g>
</g>
<!-- Node1&#45;&gt;Node5 -->
<g id="edge4" class="edge"><title>Node1&#45;&gt;Node5</title>
<path fill="none" stroke="midnightblue" d="M326.647,-74.8874C355.566,-64.2185 389.524,-51.6901 417.13,-41.5056"/>
<polygon fill="midnightblue" stroke="midnightblue" points="325.221,-71.6831 317.05,-78.4281 327.643,-78.2504 325.221,-71.6831"/>
</g>
</g>
</svg>
