<?xml version="1.0" encoding="UTF-8" standalone="no"?>
<!DOCTYPE svg PUBLIC "-//W3C//DTD SVG 1.1//EN"
 "http://www.w3.org/Graphics/SVG/1.1/DTD/svg11.dtd">
<!-- Generated by graphviz version 2.34.0 (20130910.2120)
 -->
<!-- Title: Graphical Class Hierarchy Pages: 1 -->
<svg width="428pt" height="104pt"
 viewBox="0.00 0.00 428.00 104.00" xmlns="http://www.w3.org/2000/svg" xmlns:xlink="http://www.w3.org/1999/xlink">
<g id="graph0" class="graph" transform="scale(1 1) rotate(0) translate(4 100)">
<title>Graphical Class Hierarchy</title>
<polygon fill="white" stroke="white" points="-4,4 -4,-100 424,-100 424,4 -4,4"/>
<!-- Node1 -->
<g id="node1" class="node"><title>Node1</title>
<polygon fill="white" stroke="#bfbfbf" points="108.5,-38.5 108.5,-57.5 167.5,-57.5 167.5,-38.5 108.5,-38.5"/>
<text text-anchor="middle" x="138" y="-45.5" font-family="Helvetica,sans-Serif" font-size="10.00">NSObject</text>
</g>
<!-- Node2 -->
<g id="node2" class="node"><title>Node2</title>
<g id="a_node2"><a xlink:href="interface_w_b_data_source.html" target="_top" xlink:title="WBDataSource">
<polygon fill="white" stroke="black" points="206,-76.5 206,-95.5 290,-95.5 290,-76.5 206,-76.5"/>
<text text-anchor="middle" x="248" y="-83.5" font-family="Helvetica,sans-Serif" font-size="10.00">WBDataSource</text>
</a>
</g>
</g>
<!-- Node1&#45;&gt;Node2 -->
<g id="edge1" class="edge"><title>Node1&#45;&gt;Node2</title>
<path fill="none" stroke="midnightblue" d="M175.867,-60.9718C190.256,-66.0344 206.455,-71.7341 219.756,-76.4141"/>
<polygon fill="midnightblue" stroke="midnightblue" points="176.848,-57.6065 166.253,-57.589 174.524,-64.2097 176.848,-57.6065"/>
</g>
<!-- Node4 -->
<g id="node4" class="node"><title>Node4</title>
<g id="a_node4"><a xlink:href="interface_w_b_user_factory.html" target="_top" xlink:title="WBUserFactory">
<polygon fill="white" stroke="black" points="206.5,-38.5 206.5,-57.5 289.5,-57.5 289.5,-38.5 206.5,-38.5"/>
<text text-anchor="middle" x="248" y="-45.5" font-family="Helvetica,sans-Serif" font-size="10.00">WBUserFactory</text>
</a>
</g>
</g>
<!-- Node1&#45;&gt;Node4 -->
<g id="edge3" class="edge"><title>Node1&#45;&gt;Node4</title>
<path fill="none" stroke="midnightblue" d="M177.807,-48C187.1,-48 197.046,-48 206.416,-48"/>
<polygon fill="midnightblue" stroke="midnightblue" points="177.659,-44.5001 167.658,-48 177.658,-51.5001 177.659,-44.5001"/>
</g>
<!-- Node5 -->
<g id="node5" class="node"><title>Node5</title>
<g id="a_node5"><a xlink:href="interface_z_user.html" target="_top" xlink:title="ZUser">
<polygon fill="white" stroke="black" points="227,-0.5 227,-19.5 269,-19.5 269,-0.5 227,-0.5"/>
<text text-anchor="middle" x="248" y="-7.5" font-family="Helvetica,sans-Serif" font-size="10.00">ZUser</text>
</a>
</g>
</g>
<!-- Node1&#45;&gt;Node5 -->
<g id="edge4" class="edge"><title>Node1&#45;&gt;Node5</title>
<path fill="none" stroke="midnightblue" d="M175.953,-34.9981C193.025,-28.9912 212.63,-22.093 226.915,-17.0668"/>
<polygon fill="midnightblue" stroke="midnightblue" points="174.524,-31.7903 166.253,-38.411 176.848,-38.3935 174.524,-31.7903"/>
</g>
<!-- Node3 -->
<g id="node3" class="node"><title>Node3</title>
<g id="a_node3"><a xlink:href="interface_parse_data_source.html" target="_top" xlink:title="ParseDataSource">
<polygon fill="white" stroke="black" points="326.5,-76.5 326.5,-95.5 419.5,-95.5 419.5,-76.5 326.5,-76.5"/>
<text text-anchor="middle" x="373" y="-83.5" font-family="Helvetica,sans-Serif" font-size="10.00">ParseDataSource</text>
</a>
</g>
</g>
<!-- Node2&#45;&gt;Node3 -->
<g id="edge2" class="edge"><title>Node2&#45;&gt;Node3</title>
<path fill="none" stroke="midnightblue" d="M300.569,-86C309.134,-86 317.963,-86 326.367,-86"/>
<polygon fill="midnightblue" stroke="midnightblue" points="300.299,-82.5001 290.299,-86 300.299,-89.5001 300.299,-82.5001"/>
</g>
<!-- Node6 -->
<g id="node6" class="node"><title>Node6</title>
<polygon fill="white" stroke="#bfbfbf" points="0.5,-0.5 0.5,-19.5 69.5,-19.5 69.5,-0.5 0.5,-0.5"/>
<text text-anchor="middle" x="35" y="-7.5" font-family="Helvetica,sans-Serif" font-size="10.00">&lt;NSObject&gt;</text>
</g>
<!-- Node7 -->
<g id="node7" class="node"><title>Node7</title>
<g id="a_node7"><a xlink:href="protocol_w_b_user-p.html" target="_top" xlink:title="\&lt;WBUser\&gt;">
<polygon fill="white" stroke="black" points="106.5,-0.5 106.5,-19.5 169.5,-19.5 169.5,-0.5 106.5,-0.5"/>
<text text-anchor="middle" x="138" y="-7.5" font-family="Helvetica,sans-Serif" font-size="10.00">&lt;WBUser&gt;</text>
</a>
</g>
</g>
<!-- Node6&#45;&gt;Node7 -->
<g id="edge5" class="edge"><title>Node6&#45;&gt;Node7</title>
<path fill="none" stroke="midnightblue" d="M79.8688,-10C88.7561,-10 97.9222,-10 106.24,-10"/>
<polygon fill="midnightblue" stroke="midnightblue" points="79.6316,-6.5001 69.6315,-10 79.6315,-13.5001 79.6316,-6.5001"/>
</g>
<!-- Node7&#45;&gt;Node5 -->
<g id="edge6" class="edge"><title>Node7&#45;&gt;Node5</title>
<path fill="none" stroke="midnightblue" d="M179.909,-10C195.964,-10 213.662,-10 226.848,-10"/>
<polygon fill="midnightblue" stroke="midnightblue" points="179.66,-6.5001 169.66,-10 179.66,-13.5001 179.66,-6.5001"/>
</g>
</g>
</svg>
