<?xml version="1.0" encoding="UTF-8" standalone="no"?>
<!DOCTYPE svg PUBLIC "-//W3C//DTD SVG 1.1//EN"
 "http://www.w3.org/Graphics/SVG/1.1/DTD/svg11.dtd">
<!-- Generated by graphviz version 2.34.0 (20130910.2120)
 -->
<!-- Title: /Users/lnf/Documents/Whiteboard/whiteboard/ParseDataSource.m Pages: 1 -->
<svg width="248pt" height="274pt"
 viewBox="0.00 0.00 248.00 274.00" xmlns="http://www.w3.org/2000/svg" xmlns:xlink="http://www.w3.org/1999/xlink">
<g id="graph0" class="graph" transform="scale(1 1) rotate(0) translate(4 270)">
<title>/Users/lnf/Documents/Whiteboard/whiteboard/ParseDataSource.m</title>
<polygon fill="white" stroke="white" points="-4,4 -4,-270 244,-270 244,4 -4,4"/>
<!-- Node1 -->
<g id="node1" class="node"><title>Node1</title>
<polygon fill="#bfbfbf" stroke="black" points="98.5,-224.5 98.5,-265.5 217.5,-265.5 217.5,-224.5 98.5,-224.5"/>
<text text-anchor="start" x="106.5" y="-253.5" font-family="Helvetica,sans-Serif" font-size="10.00">/Users/lnf/Documents</text>
<text text-anchor="start" x="106.5" y="-242.5" font-family="Helvetica,sans-Serif" font-size="10.00">/Whiteboard/whiteboard</text>
<text text-anchor="middle" x="158" y="-231.5" font-family="Helvetica,sans-Serif" font-size="10.00">/ParseDataSource.m</text>
</g>
<!-- Node2 -->
<g id="node2" class="node"><title>Node2</title>
<g id="a_node2"><a xlink:href="_parse_data_source_8h.html" target="_top" xlink:title="ParseDataSource.h">
<polygon fill="white" stroke="black" points="-0.5,-168.5 -0.5,-187.5 100.5,-187.5 100.5,-168.5 -0.5,-168.5"/>
<text text-anchor="middle" x="50" y="-175.5" font-family="Helvetica,sans-Serif" font-size="10.00">ParseDataSource.h</text>
</a>
</g>
</g>
<!-- Node1&#45;&gt;Node2 -->
<g id="edge1" class="edge"><title>Node1&#45;&gt;Node2</title>
<path fill="none" stroke="midnightblue" d="M125.596,-224.498C108.72,-214.34 88.4731,-202.155 73.1823,-192.952"/>
<polygon fill="midnightblue" stroke="midnightblue" points="74.7492,-189.81 64.3764,-187.652 71.1395,-195.808 74.7492,-189.81"/>
</g>
<!-- Node6 -->
<g id="node6" class="node"><title>Node6</title>
<polygon fill="white" stroke="#bfbfbf" points="119,-168.5 119,-187.5 197,-187.5 197,-168.5 119,-168.5"/>
<text text-anchor="middle" x="158" y="-175.5" font-family="Helvetica,sans-Serif" font-size="10.00">Parse/Parse.h</text>
</g>
<!-- Node1&#45;&gt;Node6 -->
<g id="edge6" class="edge"><title>Node1&#45;&gt;Node6</title>
<path fill="none" stroke="midnightblue" d="M158,-224.498C158,-216.065 158,-206.235 158,-197.874"/>
<polygon fill="midnightblue" stroke="midnightblue" points="161.5,-197.652 158,-187.652 154.5,-197.653 161.5,-197.652"/>
</g>
<!-- Node7 -->
<g id="node7" class="node"><title>Node7</title>
<g id="a_node7"><a xlink:href="_w_b_user_factory_8h.html" target="_top" xlink:title="WBUserFactory.h">
<polygon fill="white" stroke="black" points="149.5,-112.5 149.5,-131.5 240.5,-131.5 240.5,-112.5 149.5,-112.5"/>
<text text-anchor="middle" x="195" y="-119.5" font-family="Helvetica,sans-Serif" font-size="10.00">WBUserFactory.h</text>
</a>
</g>
</g>
<!-- Node1&#45;&gt;Node7 -->
<g id="edge7" class="edge"><title>Node1&#45;&gt;Node7</title>
<path fill="none" stroke="midnightblue" d="M180.994,-224.318C190.686,-214.514 200.891,-201.811 206,-188 211.64,-172.754 207.636,-154.417 202.953,-141.112"/>
<polygon fill="midnightblue" stroke="midnightblue" points="206.154,-139.689 199.223,-131.676 199.644,-142.263 206.154,-139.689"/>
</g>
<!-- Node3 -->
<g id="node3" class="node"><title>Node3</title>
<g id="a_node3"><a xlink:href="_w_b_data_source_8h.html" target="_top" xlink:title="WBDataSource.h">
<polygon fill="white" stroke="black" points="33,-112.5 33,-131.5 125,-131.5 125,-112.5 33,-112.5"/>
<text text-anchor="middle" x="79" y="-119.5" font-family="Helvetica,sans-Serif" font-size="10.00">WBDataSource.h</text>
</a>
</g>
</g>
<!-- Node2&#45;&gt;Node3 -->
<g id="edge2" class="edge"><title>Node2&#45;&gt;Node3</title>
<path fill="none" stroke="midnightblue" d="M54.7888,-168.083C58.7584,-160.691 64.5251,-149.953 69.4348,-140.811"/>
<polygon fill="midnightblue" stroke="midnightblue" points="72.6525,-142.217 74.3003,-131.751 66.4855,-138.905 72.6525,-142.217"/>
</g>
<!-- Node4 -->
<g id="node4" class="node"><title>Node4</title>
<polygon fill="white" stroke="#bfbfbf" points="77,-0.5 77,-19.5 197,-19.5 197,-0.5 77,-0.5"/>
<text text-anchor="middle" x="137" y="-7.5" font-family="Helvetica,sans-Serif" font-size="10.00">Foundation/Foundation.h</text>
</g>
<!-- Node3&#45;&gt;Node4 -->
<g id="edge3" class="edge"><title>Node3&#45;&gt;Node4</title>
<path fill="none" stroke="midnightblue" d="M80.3506,-112.128C82.591,-99.1666 87.8683,-74.5796 98,-56 103.791,-45.3806 112.435,-35.0685 120.114,-27.0009"/>
<polygon fill="midnightblue" stroke="midnightblue" points="122.755,-29.3092 127.331,-19.7534 117.795,-24.37 122.755,-29.3092"/>
</g>
<!-- Node5 -->
<g id="node5" class="node"><title>Node5</title>
<g id="a_node5"><a xlink:href="_w_b_user_8h.html" target="_top" xlink:title="WBUser.h">
<polygon fill="white" stroke="black" points="107,-56.5 107,-75.5 167,-75.5 167,-56.5 107,-56.5"/>
<text text-anchor="middle" x="137" y="-63.5" font-family="Helvetica,sans-Serif" font-size="10.00">WBUser.h</text>
</a>
</g>
</g>
<!-- Node3&#45;&gt;Node5 -->
<g id="edge4" class="edge"><title>Node3&#45;&gt;Node5</title>
<path fill="none" stroke="midnightblue" d="M88.3187,-112.324C96.8926,-104.341 109.812,-92.3128 120.188,-82.6529"/>
<polygon fill="midnightblue" stroke="midnightblue" points="122.578,-85.2098 127.512,-75.8339 117.808,-80.0865 122.578,-85.2098"/>
</g>
<!-- Node5&#45;&gt;Node4 -->
<g id="edge5" class="edge"><title>Node5&#45;&gt;Node4</title>
<path fill="none" stroke="midnightblue" d="M137,-56.083C137,-49.0059 137,-38.8611 137,-29.9865"/>
<polygon fill="midnightblue" stroke="midnightblue" points="140.5,-29.751 137,-19.7511 133.5,-29.7511 140.5,-29.751"/>
</g>
<!-- Node7&#45;&gt;Node4 -->
<g id="edge8" class="edge"><title>Node7&#45;&gt;Node4</title>
<path fill="none" stroke="midnightblue" d="M193.649,-112.128C191.409,-99.1666 186.132,-74.5796 176,-56 170.209,-45.3806 161.565,-35.0685 153.886,-27.0009"/>
<polygon fill="midnightblue" stroke="midnightblue" points="156.205,-24.37 146.669,-19.7534 151.245,-29.3092 156.205,-24.37"/>
</g>
<!-- Node7&#45;&gt;Node5 -->
<g id="edge9" class="edge"><title>Node7&#45;&gt;Node5</title>
<path fill="none" stroke="midnightblue" d="M185.681,-112.324C177.107,-104.341 164.188,-92.3128 153.812,-82.6529"/>
<polygon fill="midnightblue" stroke="midnightblue" points="156.192,-80.0865 146.488,-75.8339 151.422,-85.2098 156.192,-80.0865"/>
</g>
</g>
</svg>
