<?xml version="1.0" encoding="UTF-8" standalone="no"?>
<!DOCTYPE svg PUBLIC "-//W3C//DTD SVG 1.1//EN"
 "http://www.w3.org/Graphics/SVG/1.1/DTD/svg11.dtd">
<!-- Generated by graphviz version 2.34.0 (20130910.2120)
 -->
<!-- Title: /Users/lnf/Documents/Whiteboard/whiteboard/WBDataSource.h Pages: 1 -->
<svg width="128pt" height="162pt"
 viewBox="0.00 0.00 128.00 162.00" xmlns="http://www.w3.org/2000/svg" xmlns:xlink="http://www.w3.org/1999/xlink">
<g id="graph0" class="graph" transform="scale(1 1) rotate(0) translate(4 158)">
<title>/Users/lnf/Documents/Whiteboard/whiteboard/WBDataSource.h</title>
<polygon fill="white" stroke="white" points="-4,4 -4,-158 124,-158 124,4 -4,4"/>
<!-- Node1 -->
<g id="node1" class="node"><title>Node1</title>
<polygon fill="#bfbfbf" stroke="black" points="0.5,-112.5 0.5,-153.5 119.5,-153.5 119.5,-112.5 0.5,-112.5"/>
<text text-anchor="start" x="8.5" y="-141.5" font-family="Helvetica,sans-Serif" font-size="10.00">/Users/lnf/Documents</text>
<text text-anchor="start" x="8.5" y="-130.5" font-family="Helvetica,sans-Serif" font-size="10.00">/Whiteboard/whiteboard</text>
<text text-anchor="middle" x="60" y="-119.5" font-family="Helvetica,sans-Serif" font-size="10.00">/WBDataSource.h</text>
</g>
<!-- Node2 -->
<g id="node2" class="node"><title>Node2</title>
<polygon fill="white" stroke="#bfbfbf" points="0,-0.5 0,-19.5 120,-19.5 120,-0.5 0,-0.5"/>
<text text-anchor="middle" x="60" y="-7.5" font-family="Helvetica,sans-Serif" font-size="10.00">Foundation/Foundation.h</text>
</g>
<!-- Node1&#45;&gt;Node2 -->
<g id="edge1" class="edge"><title>Node1&#45;&gt;Node2</title>
<path fill="none" stroke="midnightblue" d="M54.8027,-112.344C51.3822,-97.0161 47.8944,-75.1816 50,-56 50.9726,-47.1398 52.9917,-37.4716 54.9626,-29.3755"/>
<polygon fill="midnightblue" stroke="midnightblue" points="58.3926,-30.0919 57.5176,-19.5332 51.6171,-28.333 58.3926,-30.0919"/>
</g>
<!-- Node3 -->
<g id="node3" class="node"><title>Node3</title>
<g id="a_node3"><a xlink:href="_w_b_user_8h.html" target="_top" xlink:title="WBUser.h">
<polygon fill="white" stroke="black" points="59,-56.5 59,-75.5 119,-75.5 119,-56.5 59,-56.5"/>
<text text-anchor="middle" x="89" y="-63.5" font-family="Helvetica,sans-Serif" font-size="10.00">WBUser.h</text>
</a>
</g>
</g>
<!-- Node1&#45;&gt;Node3 -->
<g id="edge2" class="edge"><title>Node1&#45;&gt;Node3</title>
<path fill="none" stroke="midnightblue" d="M68.701,-112.498C72.5914,-103.778 77.1487,-93.5632 80.9585,-85.0241"/>
<polygon fill="midnightblue" stroke="midnightblue" points="84.2615,-86.2109 85.1397,-75.6525 77.8689,-83.3587 84.2615,-86.2109"/>
</g>
<!-- Node3&#45;&gt;Node2 -->
<g id="edge3" class="edge"><title>Node3&#45;&gt;Node2</title>
<path fill="none" stroke="midnightblue" d="M84.2112,-56.083C80.2416,-48.6913 74.4749,-37.9533 69.5652,-28.8111"/>
<polygon fill="midnightblue" stroke="midnightblue" points="72.5145,-26.9051 64.6997,-19.7511 66.3475,-30.217 72.5145,-26.9051"/>
</g>
</g>
</svg>
