<?xml version="1.0" encoding="UTF-8" standalone="no"?>
<!DOCTYPE svg PUBLIC "-//W3C//DTD SVG 1.1//EN"
 "http://www.w3.org/Graphics/SVG/1.1/DTD/svg11.dtd">
<!-- Generated by graphviz version 2.34.0 (20130910.2120)
 -->
<!-- Title: /Users/lnf/Documents/Whiteboard/whiteboard/WBUser.h Pages: 1 -->
<svg width="850pt" height="284pt"
 viewBox="0.00 0.00 850.00 284.00" xmlns="http://www.w3.org/2000/svg" xmlns:xlink="http://www.w3.org/1999/xlink">
<g id="graph0" class="graph" transform="scale(1 1) rotate(0) translate(4 280)">
<title>/Users/lnf/Documents/Whiteboard/whiteboard/WBUser.h</title>
<polygon fill="white" stroke="white" points="-4,4 -4,-280 846,-280 846,4 -4,4"/>
<!-- Node1 -->
<g id="node1" class="node"><title>Node1</title>
<polygon fill="#bfbfbf" stroke="black" points="243.5,-234.5 243.5,-275.5 362.5,-275.5 362.5,-234.5 243.5,-234.5"/>
<text text-anchor="start" x="251.5" y="-263.5" font-family="Helvetica,sans-Serif" font-size="10.00">/Users/lnf/Documents</text>
<text text-anchor="start" x="251.5" y="-252.5" font-family="Helvetica,sans-Serif" font-size="10.00">/Whiteboard/whiteboard</text>
<text text-anchor="middle" x="303" y="-241.5" font-family="Helvetica,sans-Serif" font-size="10.00">/WBUser.h</text>
</g>
<!-- Node2 -->
<g id="node2" class="node"><title>Node2</title>
<g id="a_node2"><a xlink:href="_w_b_user_factory_8h.html" target="_top" xlink:title="/Users/lnf/Documents\l/Whiteboard/whiteboard\l/WBUserFactory.h">
<polygon fill="white" stroke="black" points="175.5,-156.5 175.5,-197.5 294.5,-197.5 294.5,-156.5 175.5,-156.5"/>
<text text-anchor="start" x="183.5" y="-185.5" font-family="Helvetica,sans-Serif" font-size="10.00">/Users/lnf/Documents</text>
<text text-anchor="start" x="183.5" y="-174.5" font-family="Helvetica,sans-Serif" font-size="10.00">/Whiteboard/whiteboard</text>
<text text-anchor="middle" x="235" y="-163.5" font-family="Helvetica,sans-Serif" font-size="10.00">/WBUserFactory.h</text>
</a>
</g>
</g>
<!-- Node1&#45;&gt;Node2 -->
<g id="edge1" class="edge"><title>Node1&#45;&gt;Node2</title>
<path fill="none" stroke="midnightblue" d="M278.767,-226.916C270.076,-217.203 260.455,-206.45 252.452,-197.506"/>
<polygon fill="midnightblue" stroke="midnightblue" points="276.212,-229.309 285.488,-234.428 281.429,-224.642 276.212,-229.309"/>
</g>
<!-- Node4 -->
<g id="node4" class="node"><title>Node4</title>
<g id="a_node4"><a xlink:href="_my_view_controller_8m.html" target="_top" xlink:title="/Users/lnf/Documents\l/Whiteboard/whiteboard\l/MyViewController.m">
<polygon fill="white" stroke="black" points="-0.5,-78.5 -0.5,-119.5 118.5,-119.5 118.5,-78.5 -0.5,-78.5"/>
<text text-anchor="start" x="7.5" y="-107.5" font-family="Helvetica,sans-Serif" font-size="10.00">/Users/lnf/Documents</text>
<text text-anchor="start" x="7.5" y="-96.5" font-family="Helvetica,sans-Serif" font-size="10.00">/Whiteboard/whiteboard</text>
<text text-anchor="middle" x="59" y="-85.5" font-family="Helvetica,sans-Serif" font-size="10.00">/MyViewController.m</text>
</a>
</g>
</g>
<!-- Node1&#45;&gt;Node4 -->
<g id="edge11" class="edge"><title>Node1&#45;&gt;Node4</title>
<path fill="none" stroke="midnightblue" d="M233.941,-231.259C211.439,-222.436 186.891,-211.237 166,-198 130.678,-175.619 96.1736,-141.057 76.2786,-119.522"/>
<polygon fill="midnightblue" stroke="midnightblue" points="232.852,-234.59 243.443,-234.894 235.353,-228.052 232.852,-234.59"/>
</g>
<!-- Node7 -->
<g id="node7" class="node"><title>Node7</title>
<g id="a_node7"><a xlink:href="_w_b_data_source_8h.html" target="_top" xlink:title="/Users/lnf/Documents\l/Whiteboard/whiteboard\l/WBDataSource.h">
<polygon fill="white" stroke="black" points="380.5,-156.5 380.5,-197.5 499.5,-197.5 499.5,-156.5 380.5,-156.5"/>
<text text-anchor="start" x="388.5" y="-185.5" font-family="Helvetica,sans-Serif" font-size="10.00">/Users/lnf/Documents</text>
<text text-anchor="start" x="388.5" y="-174.5" font-family="Helvetica,sans-Serif" font-size="10.00">/Whiteboard/whiteboard</text>
<text text-anchor="middle" x="440" y="-163.5" font-family="Helvetica,sans-Serif" font-size="10.00">/WBDataSource.h</text>
</a>
</g>
</g>
<!-- Node1&#45;&gt;Node7 -->
<g id="edge6" class="edge"><title>Node1&#45;&gt;Node7</title>
<path fill="none" stroke="midnightblue" d="M347.19,-229.486C365.851,-219.134 387.278,-207.247 404.839,-197.506"/>
<polygon fill="midnightblue" stroke="midnightblue" points="345.328,-226.516 338.281,-234.428 348.723,-232.638 345.328,-226.516"/>
</g>
<!-- Node10 -->
<g id="node10" class="node"><title>Node10</title>
<g id="a_node10"><a xlink:href="_z_user_8h.html" target="_top" xlink:title="/Users/lnf/Documents\l/Whiteboard/whiteboard\l/ZUser.h">
<polygon fill="white" stroke="black" points="654.5,-156.5 654.5,-197.5 773.5,-197.5 773.5,-156.5 654.5,-156.5"/>
<text text-anchor="start" x="662.5" y="-185.5" font-family="Helvetica,sans-Serif" font-size="10.00">/Users/lnf/Documents</text>
<text text-anchor="start" x="662.5" y="-174.5" font-family="Helvetica,sans-Serif" font-size="10.00">/Whiteboard/whiteboard</text>
<text text-anchor="middle" x="714" y="-163.5" font-family="Helvetica,sans-Serif" font-size="10.00">/ZUser.h</text>
</a>
</g>
</g>
<!-- Node1&#45;&gt;Node10 -->
<g id="edge12" class="edge"><title>Node1&#45;&gt;Node10</title>
<path fill="none" stroke="midnightblue" d="M372.648,-241.121C451.839,-226.477 579.789,-202.818 654.499,-189.003"/>
<polygon fill="midnightblue" stroke="midnightblue" points="371.96,-237.689 362.763,-242.949 373.233,-244.572 371.96,-237.689"/>
</g>
<!-- Node3 -->
<g id="node3" class="node"><title>Node3</title>
<g id="a_node3"><a xlink:href="main_8m.html" target="_top" xlink:title="/Users/lnf/Documents\l/Whiteboard/whiteboard\l/main.m">
<polygon fill="white" stroke="black" points="312.5,-78.5 312.5,-119.5 431.5,-119.5 431.5,-78.5 312.5,-78.5"/>
<text text-anchor="start" x="320.5" y="-107.5" font-family="Helvetica,sans-Serif" font-size="10.00">/Users/lnf/Documents</text>
<text text-anchor="start" x="320.5" y="-96.5" font-family="Helvetica,sans-Serif" font-size="10.00">/Whiteboard/whiteboard</text>
<text text-anchor="middle" x="372" y="-85.5" font-family="Helvetica,sans-Serif" font-size="10.00">/main.m</text>
</a>
</g>
</g>
<!-- Node2&#45;&gt;Node3 -->
<g id="edge2" class="edge"><title>Node2&#45;&gt;Node3</title>
<path fill="none" stroke="midnightblue" d="M279.19,-151.486C297.851,-141.134 319.278,-129.247 336.839,-119.506"/>
<polygon fill="midnightblue" stroke="midnightblue" points="277.328,-148.516 270.281,-156.428 280.723,-154.638 277.328,-148.516"/>
</g>
<!-- Node2&#45;&gt;Node4 -->
<g id="edge3" class="edge"><title>Node2&#45;&gt;Node4</title>
<path fill="none" stroke="midnightblue" d="M180.183,-152.329C155.762,-141.783 127.346,-129.513 104.171,-119.506"/>
<polygon fill="midnightblue" stroke="midnightblue" points="179.107,-155.677 189.676,-156.428 181.883,-149.25 179.107,-155.677"/>
</g>
<!-- Node5 -->
<g id="node5" class="node"><title>Node5</title>
<g id="a_node5"><a xlink:href="_parse_data_source_8m.html" target="_top" xlink:title="/Users/lnf/Documents\l/Whiteboard/whiteboard\l/ParseDataSource.m">
<polygon fill="white" stroke="black" points="268.5,-0.5 268.5,-41.5 387.5,-41.5 387.5,-0.5 268.5,-0.5"/>
<text text-anchor="start" x="276.5" y="-29.5" font-family="Helvetica,sans-Serif" font-size="10.00">/Users/lnf/Documents</text>
<text text-anchor="start" x="276.5" y="-18.5" font-family="Helvetica,sans-Serif" font-size="10.00">/Whiteboard/whiteboard</text>
<text text-anchor="middle" x="328" y="-7.5" font-family="Helvetica,sans-Serif" font-size="10.00">/ParseDataSource.m</text>
</a>
</g>
</g>
<!-- Node2&#45;&gt;Node5 -->
<g id="edge4" class="edge"><title>Node2&#45;&gt;Node5</title>
<path fill="none" stroke="midnightblue" d="M191.113,-150.102C181.013,-141.854 171.601,-131.76 166,-120 157.973,-103.147 155.169,-93.2034 166,-78 189.136,-45.5226 232.438,-31.7017 268.455,-25.9047"/>
<polygon fill="midnightblue" stroke="midnightblue" points="189.219,-153.059 199.3,-156.318 193.452,-147.483 189.219,-153.059"/>
</g>
<!-- Node6 -->
<g id="node6" class="node"><title>Node6</title>
<g id="a_node6"><a xlink:href="_w_b_user_factory_8m.html" target="_top" xlink:title="/Users/lnf/Documents\l/Whiteboard/whiteboard\l/WBUserFactory.m">
<polygon fill="white" stroke="black" points="175.5,-78.5 175.5,-119.5 294.5,-119.5 294.5,-78.5 175.5,-78.5"/>
<text text-anchor="start" x="183.5" y="-107.5" font-family="Helvetica,sans-Serif" font-size="10.00">/Users/lnf/Documents</text>
<text text-anchor="start" x="183.5" y="-96.5" font-family="Helvetica,sans-Serif" font-size="10.00">/Whiteboard/whiteboard</text>
<text text-anchor="middle" x="235" y="-85.5" font-family="Helvetica,sans-Serif" font-size="10.00">/WBUserFactory.m</text>
</a>
</g>
</g>
<!-- Node2&#45;&gt;Node6 -->
<g id="edge5" class="edge"><title>Node2&#45;&gt;Node6</title>
<path fill="none" stroke="midnightblue" d="M235,-146.297C235,-137.301 235,-127.653 235,-119.506"/>
<polygon fill="midnightblue" stroke="midnightblue" points="231.5,-146.428 235,-156.428 238.5,-146.428 231.5,-146.428"/>
</g>
<!-- Node7&#45;&gt;Node3 -->
<g id="edge7" class="edge"><title>Node7&#45;&gt;Node3</title>
<path fill="none" stroke="midnightblue" d="M415.767,-148.916C407.076,-139.203 397.455,-128.45 389.452,-119.506"/>
<polygon fill="midnightblue" stroke="midnightblue" points="413.212,-151.309 422.488,-156.428 418.429,-146.642 413.212,-151.309"/>
</g>
<!-- Node8 -->
<g id="node8" class="node"><title>Node8</title>
<g id="a_node8"><a xlink:href="_parse_data_source_8h.html" target="_top" xlink:title="/Users/lnf/Documents\l/Whiteboard/whiteboard\l/ParseDataSource.h">
<polygon fill="white" stroke="black" points="449.5,-78.5 449.5,-119.5 568.5,-119.5 568.5,-78.5 449.5,-78.5"/>
<text text-anchor="start" x="457.5" y="-107.5" font-family="Helvetica,sans-Serif" font-size="10.00">/Users/lnf/Documents</text>
<text text-anchor="start" x="457.5" y="-96.5" font-family="Helvetica,sans-Serif" font-size="10.00">/Whiteboard/whiteboard</text>
<text text-anchor="middle" x="509" y="-85.5" font-family="Helvetica,sans-Serif" font-size="10.00">/ParseDataSource.h</text>
</a>
</g>
</g>
<!-- Node7&#45;&gt;Node8 -->
<g id="edge8" class="edge"><title>Node7&#45;&gt;Node8</title>
<path fill="none" stroke="midnightblue" d="M464.59,-148.916C473.408,-139.203 483.17,-128.45 491.291,-119.506"/>
<polygon fill="midnightblue" stroke="midnightblue" points="461.9,-146.672 457.769,-156.428 467.082,-151.377 461.9,-146.672"/>
</g>
<!-- Node9 -->
<g id="node9" class="node"><title>Node9</title>
<g id="a_node9"><a xlink:href="_w_b_data_source_8m.html" target="_top" xlink:title="/Users/lnf/Documents\l/Whiteboard/whiteboard\l/WBDataSource.m">
<polygon fill="white" stroke="black" points="586.5,-78.5 586.5,-119.5 705.5,-119.5 705.5,-78.5 586.5,-78.5"/>
<text text-anchor="start" x="594.5" y="-107.5" font-family="Helvetica,sans-Serif" font-size="10.00">/Users/lnf/Documents</text>
<text text-anchor="start" x="594.5" y="-96.5" font-family="Helvetica,sans-Serif" font-size="10.00">/Whiteboard/whiteboard</text>
<text text-anchor="middle" x="646" y="-85.5" font-family="Helvetica,sans-Serif" font-size="10.00">/WBDataSource.m</text>
</a>
</g>
</g>
<!-- Node7&#45;&gt;Node9 -->
<g id="edge10" class="edge"><title>Node7&#45;&gt;Node9</title>
<path fill="none" stroke="midnightblue" d="M502.647,-152.887C531.566,-142.219 565.524,-129.69 593.13,-119.506"/>
<polygon fill="midnightblue" stroke="midnightblue" points="501.221,-149.683 493.05,-156.428 503.643,-156.25 501.221,-149.683"/>
</g>
<!-- Node8&#45;&gt;Node5 -->
<g id="edge9" class="edge"><title>Node8&#45;&gt;Node5</title>
<path fill="none" stroke="midnightblue" d="M452.959,-74.4689C427.769,-63.8921 398.393,-51.5572 374.454,-41.5056"/>
<polygon fill="midnightblue" stroke="midnightblue" points="451.813,-77.7837 462.388,-78.4281 454.523,-71.3295 451.813,-77.7837"/>
</g>
<!-- Node11 -->
<g id="node11" class="node"><title>Node11</title>
<g id="a_node11"><a xlink:href="_z_user_8m.html" target="_top" xlink:title="/Users/lnf/Documents\l/Whiteboard/whiteboard\l/ZUser.m">
<polygon fill="white" stroke="black" points="723.5,-78.5 723.5,-119.5 842.5,-119.5 842.5,-78.5 723.5,-78.5"/>
<text text-anchor="start" x="731.5" y="-107.5" font-family="Helvetica,sans-Serif" font-size="10.00">/Users/lnf/Documents</text>
<text text-anchor="start" x="731.5" y="-96.5" font-family="Helvetica,sans-Serif" font-size="10.00">/Whiteboard/whiteboard</text>
<text text-anchor="middle" x="783" y="-85.5" font-family="Helvetica,sans-Serif" font-size="10.00">/ZUser.m</text>
</a>
</g>
</g>
<!-- Node10&#45;&gt;Node11 -->
<g id="edge13" class="edge"><title>Node10&#45;&gt;Node11</title>
<path fill="none" stroke="midnightblue" d="M738.59,-148.916C747.408,-139.203 757.17,-128.45 765.291,-119.506"/>
<polygon fill="midnightblue" stroke="midnightblue" points="735.9,-146.672 731.769,-156.428 741.082,-151.377 735.9,-146.672"/>
</g>
</g>
</svg>
