<?xml version="1.0" encoding="UTF-8" standalone="no"?>
<!DOCTYPE svg PUBLIC "-//W3C//DTD SVG 1.1//EN"
 "http://www.w3.org/Graphics/SVG/1.1/DTD/svg11.dtd">
<!-- Generated by graphviz version 2.34.0 (20130910.2120)
 -->
<!-- Title: main Pages: 1 -->
<svg width="240pt" height="77pt"
 viewBox="0.00 0.00 240.00 77.00" xmlns="http://www.w3.org/2000/svg" xmlns:xlink="http://www.w3.org/1999/xlink">
<g id="graph0" class="graph" transform="scale(1 1) rotate(0) translate(4 73)">
<title>main</title>
<polygon fill="white" stroke="white" points="-4,4 -4,-73 236,-73 236,4 -4,4"/>
<!-- Node1 -->
<g id="node1" class="node"><title>Node1</title>
<polygon fill="#bfbfbf" stroke="black" points="0.5,-27.5 0.5,-46.5 37.5,-46.5 37.5,-27.5 0.5,-27.5"/>
<text text-anchor="middle" x="19" y="-34.5" font-family="Helvetica,sans-Serif" font-size="10.00">main</text>
</g>
<!-- Node2 -->
<g id="node2" class="node"><title>Node2</title>
<g id="a_node2"><a xlink:href="interface_w_b_user_factory.html#ad661c3e59d528acf4fd4651ea98d4bc1" target="_top" xlink:title="+[WBUserFactory setUserClass:]">
<polygon fill="white" stroke="black" points="74.5,-49.5 74.5,-68.5 231.5,-68.5 231.5,-49.5 74.5,-49.5"/>
<text text-anchor="middle" x="153" y="-56.5" font-family="Helvetica,sans-Serif" font-size="10.00">+[WBUserFactory setUserClass:]</text>
</a>
</g>
</g>
<!-- Node1&#45;&gt;Node2 -->
<g id="edge1" class="edge"><title>Node1&#45;&gt;Node2</title>
<path fill="none" stroke="midnightblue" d="M37.5286,-39.9214C49.8397,-41.9733 67.1656,-44.8609 84.6201,-47.77"/>
<polygon fill="midnightblue" stroke="midnightblue" points="84.4357,-51.2875 94.8751,-49.4792 85.5866,-44.3827 84.4357,-51.2875"/>
</g>
<!-- Node3 -->
<g id="node3" class="node"><title>Node3</title>
<g id="a_node3"><a xlink:href="interface_w_b_data_source.html#ab4fa0b937eca56acef1ebbbc65c12a6b" target="_top" xlink:title="+[WBDataSource initWithData\lSourceSubclass:]">
<polygon fill="white" stroke="black" points="80,-0 80,-30 226,-30 226,-0 80,-0"/>
<text text-anchor="start" x="88" y="-18" font-family="Helvetica,sans-Serif" font-size="10.00">+[WBDataSource initWithData</text>
<text text-anchor="middle" x="153" y="-7" font-family="Helvetica,sans-Serif" font-size="10.00">SourceSubclass:]</text>
</a>
</g>
</g>
<!-- Node1&#45;&gt;Node3 -->
<g id="edge2" class="edge"><title>Node1&#45;&gt;Node3</title>
<path fill="none" stroke="midnightblue" d="M37.5286,-34.0786C46.3825,-32.6029 57.8302,-30.695 70.0541,-28.6577"/>
<polygon fill="midnightblue" stroke="midnightblue" points="70.7006,-32.0983 79.9891,-27.0018 69.5497,-25.1935 70.7006,-32.0983"/>
</g>
</g>
</svg>
