<?xml version="1.0" encoding="UTF-8" standalone="no"?>
<!DOCTYPE svg PUBLIC "-//W3C//DTD SVG 1.1//EN"
 "http://www.w3.org/Graphics/SVG/1.1/DTD/svg11.dtd">
<!-- Generated by graphviz version 2.34.0 (20130910.2120)
 -->
<!-- Title: /Users/lnf/Documents/Whiteboard/whiteboard/main.m Pages: 1 -->
<svg width="336pt" height="218pt"
 viewBox="0.00 0.00 336.00 218.00" xmlns="http://www.w3.org/2000/svg" xmlns:xlink="http://www.w3.org/1999/xlink">
<g id="graph0" class="graph" transform="scale(1 1) rotate(0) translate(4 214)">
<title>/Users/lnf/Documents/Whiteboard/whiteboard/main.m</title>
<polygon fill="white" stroke="white" points="-4,4 -4,-214 332,-214 332,4 -4,4"/>
<!-- Node1 -->
<g id="node1" class="node"><title>Node1</title>
<polygon fill="#bfbfbf" stroke="black" points="60.5,-168.5 60.5,-209.5 179.5,-209.5 179.5,-168.5 60.5,-168.5"/>
<text text-anchor="start" x="68.5" y="-197.5" font-family="Helvetica,sans-Serif" font-size="10.00">/Users/lnf/Documents</text>
<text text-anchor="start" x="68.5" y="-186.5" font-family="Helvetica,sans-Serif" font-size="10.00">/Whiteboard/whiteboard</text>
<text text-anchor="middle" x="120" y="-175.5" font-family="Helvetica,sans-Serif" font-size="10.00">/main.m</text>
</g>
<!-- Node2 -->
<g id="node2" class="node"><title>Node2</title>
<polygon fill="white" stroke="#bfbfbf" points="0,-56.5 0,-75.5 66,-75.5 66,-56.5 0,-56.5"/>
<text text-anchor="middle" x="33" y="-63.5" font-family="Helvetica,sans-Serif" font-size="10.00">UIKit/UIKit.h</text>
</g>
<!-- Node1&#45;&gt;Node2 -->
<g id="edge1" class="edge"><title>Node1&#45;&gt;Node2</title>
<path fill="none" stroke="midnightblue" d="M60.2405,-168.467C43.6458,-159.98 27.5682,-148.169 18,-132 9.36193,-117.403 15.5164,-98.2345 22.3654,-84.5021"/>
<polygon fill="midnightblue" stroke="midnightblue" points="25.507,-86.0531 27.2736,-75.6066 19.378,-82.6713 25.507,-86.0531"/>
</g>
<!-- Node3 -->
<g id="node3" class="node"><title>Node3</title>
<g id="a_node3"><a xlink:href="_app_delegate_8h.html" target="_top" xlink:title="AppDelegate.h">
<polygon fill="white" stroke="black" points="27.5,-112.5 27.5,-131.5 108.5,-131.5 108.5,-112.5 27.5,-112.5"/>
<text text-anchor="middle" x="68" y="-119.5" font-family="Helvetica,sans-Serif" font-size="10.00">AppDelegate.h</text>
</a>
</g>
</g>
<!-- Node1&#45;&gt;Node3 -->
<g id="edge2" class="edge"><title>Node1&#45;&gt;Node3</title>
<path fill="none" stroke="midnightblue" d="M104.398,-168.498C97.039,-159.299 88.349,-148.436 81.3058,-139.632"/>
<polygon fill="midnightblue" stroke="midnightblue" points="83.902,-137.275 74.922,-131.652 78.4359,-141.648 83.902,-137.275"/>
</g>
<!-- Node4 -->
<g id="node4" class="node"><title>Node4</title>
<g id="a_node4"><a xlink:href="_w_b_user_factory_8h.html" target="_top" xlink:title="WBUserFactory.h">
<polygon fill="white" stroke="black" points="126.5,-112.5 126.5,-131.5 217.5,-131.5 217.5,-112.5 126.5,-112.5"/>
<text text-anchor="middle" x="172" y="-119.5" font-family="Helvetica,sans-Serif" font-size="10.00">WBUserFactory.h</text>
</a>
</g>
</g>
<!-- Node1&#45;&gt;Node4 -->
<g id="edge4" class="edge"><title>Node1&#45;&gt;Node4</title>
<path fill="none" stroke="midnightblue" d="M135.602,-168.498C142.961,-159.299 151.651,-148.436 158.694,-139.632"/>
<polygon fill="midnightblue" stroke="midnightblue" points="161.564,-141.648 165.078,-131.652 156.098,-137.275 161.564,-141.648"/>
</g>
<!-- Node7 -->
<g id="node7" class="node"><title>Node7</title>
<g id="a_node7"><a xlink:href="_w_b_data_source_8h.html" target="_top" xlink:title="WBDataSource.h">
<polygon fill="white" stroke="black" points="236,-112.5 236,-131.5 328,-131.5 328,-112.5 236,-112.5"/>
<text text-anchor="middle" x="282" y="-119.5" font-family="Helvetica,sans-Serif" font-size="10.00">WBDataSource.h</text>
</a>
</g>
</g>
<!-- Node1&#45;&gt;Node7 -->
<g id="edge8" class="edge"><title>Node1&#45;&gt;Node7</title>
<path fill="none" stroke="midnightblue" d="M168.605,-168.498C195.354,-157.766 227.745,-144.769 251.048,-135.419"/>
<polygon fill="midnightblue" stroke="midnightblue" points="252.458,-138.625 260.435,-131.652 249.851,-132.128 252.458,-138.625"/>
</g>
<!-- Node3&#45;&gt;Node2 -->
<g id="edge3" class="edge"><title>Node3&#45;&gt;Node2</title>
<path fill="none" stroke="midnightblue" d="M62.2205,-112.083C57.3276,-104.534 50.1726,-93.4948 44.1674,-84.2298"/>
<polygon fill="midnightblue" stroke="midnightblue" points="47.048,-82.239 38.672,-75.7511 41.174,-86.0463 47.048,-82.239"/>
</g>
<!-- Node5 -->
<g id="node5" class="node"><title>Node5</title>
<polygon fill="white" stroke="#bfbfbf" points="167,-0.5 167,-19.5 287,-19.5 287,-0.5 167,-0.5"/>
<text text-anchor="middle" x="227" y="-7.5" font-family="Helvetica,sans-Serif" font-size="10.00">Foundation/Foundation.h</text>
</g>
<!-- Node4&#45;&gt;Node5 -->
<g id="edge5" class="edge"><title>Node4&#45;&gt;Node5</title>
<path fill="none" stroke="midnightblue" d="M172.85,-112.127C174.379,-99.165 178.382,-74.5768 188,-56 193.561,-45.2584 202.185,-34.9358 209.911,-26.8929"/>
<polygon fill="midnightblue" stroke="midnightblue" points="212.551,-29.2039 217.191,-19.6788 207.624,-24.2319 212.551,-29.2039"/>
</g>
<!-- Node6 -->
<g id="node6" class="node"><title>Node6</title>
<g id="a_node6"><a xlink:href="_w_b_user_8h.html" target="_top" xlink:title="WBUser.h">
<polygon fill="white" stroke="black" points="197,-56.5 197,-75.5 257,-75.5 257,-56.5 197,-56.5"/>
<text text-anchor="middle" x="227" y="-63.5" font-family="Helvetica,sans-Serif" font-size="10.00">WBUser.h</text>
</a>
</g>
</g>
<!-- Node4&#45;&gt;Node6 -->
<g id="edge6" class="edge"><title>Node4&#45;&gt;Node6</title>
<path fill="none" stroke="midnightblue" d="M181.082,-112.083C189.171,-104.141 201.195,-92.3354 210.91,-82.7973"/>
<polygon fill="midnightblue" stroke="midnightblue" points="213.403,-85.2545 218.087,-75.7511 208.499,-80.2595 213.403,-85.2545"/>
</g>
<!-- Node6&#45;&gt;Node5 -->
<g id="edge7" class="edge"><title>Node6&#45;&gt;Node5</title>
<path fill="none" stroke="midnightblue" d="M227,-56.083C227,-49.0059 227,-38.8611 227,-29.9865"/>
<polygon fill="midnightblue" stroke="midnightblue" points="230.5,-29.751 227,-19.7511 223.5,-29.7511 230.5,-29.751"/>
</g>
<!-- Node7&#45;&gt;Node5 -->
<g id="edge9" class="edge"><title>Node7&#45;&gt;Node5</title>
<path fill="none" stroke="midnightblue" d="M281.15,-112.127C279.621,-99.165 275.618,-74.5768 266,-56 260.439,-45.2584 251.815,-34.9358 244.089,-26.8929"/>
<polygon fill="midnightblue" stroke="midnightblue" points="246.376,-24.2319 236.809,-19.6788 241.449,-29.2039 246.376,-24.2319"/>
</g>
<!-- Node7&#45;&gt;Node6 -->
<g id="edge10" class="edge"><title>Node7&#45;&gt;Node6</title>
<path fill="none" stroke="midnightblue" d="M272.918,-112.083C264.829,-104.141 252.805,-92.3354 243.09,-82.7973"/>
<polygon fill="midnightblue" stroke="midnightblue" points="245.501,-80.2595 235.913,-75.7511 240.597,-85.2545 245.501,-80.2595"/>
</g>
</g>
</svg>
