<?xml version="1.0" encoding="UTF-8" standalone="no"?>
<!DOCTYPE svg PUBLIC "-//W3C//DTD SVG 1.1//EN"
 "http://www.w3.org/Graphics/SVG/1.1/DTD/svg11.dtd">
<!-- Generated by graphviz version 2.34.0 (20130910.2120)
 -->
<!-- Title: /Users/lnf/Documents/Whiteboard/whiteboard/MyViewController.h Pages: 1 -->
<svg width="126pt" height="128pt"
 viewBox="0.00 0.00 126.00 128.00" xmlns="http://www.w3.org/2000/svg" xmlns:xlink="http://www.w3.org/1999/xlink">
<g id="graph0" class="graph" transform="scale(1 1) rotate(0) translate(4 124)">
<title>/Users/lnf/Documents/Whiteboard/whiteboard/MyViewController.h</title>
<polygon fill="white" stroke="white" points="-4,4 -4,-124 122,-124 122,4 -4,4"/>
<!-- Node1 -->
<g id="node1" class="node"><title>Node1</title>
<polygon fill="#bfbfbf" stroke="black" points="-0.5,-78.5 -0.5,-119.5 118.5,-119.5 118.5,-78.5 -0.5,-78.5"/>
<text text-anchor="start" x="7.5" y="-107.5" font-family="Helvetica,sans-Serif" font-size="10.00">/Users/lnf/Documents</text>
<text text-anchor="start" x="7.5" y="-96.5" font-family="Helvetica,sans-Serif" font-size="10.00">/Whiteboard/whiteboard</text>
<text text-anchor="middle" x="59" y="-85.5" font-family="Helvetica,sans-Serif" font-size="10.00">/MyViewController.h</text>
</g>
<!-- Node2 -->
<g id="node2" class="node"><title>Node2</title>
<g id="a_node2"><a xlink:href="_my_view_controller_8m.html" target="_top" xlink:title="/Users/lnf/Documents\l/Whiteboard/whiteboard\l/MyViewController.m">
<polygon fill="white" stroke="black" points="-0.5,-0.5 -0.5,-41.5 118.5,-41.5 118.5,-0.5 -0.5,-0.5"/>
<text text-anchor="start" x="7.5" y="-29.5" font-family="Helvetica,sans-Serif" font-size="10.00">/Users/lnf/Documents</text>
<text text-anchor="start" x="7.5" y="-18.5" font-family="Helvetica,sans-Serif" font-size="10.00">/Whiteboard/whiteboard</text>
<text text-anchor="middle" x="59" y="-7.5" font-family="Helvetica,sans-Serif" font-size="10.00">/MyViewController.m</text>
</a>
</g>
</g>
<!-- Node1&#45;&gt;Node2 -->
<g id="edge1" class="edge"><title>Node1&#45;&gt;Node2</title>
<path fill="none" stroke="midnightblue" d="M59,-68.2965C59,-59.3009 59,-49.6532 59,-41.5056"/>
<polygon fill="midnightblue" stroke="midnightblue" points="55.5001,-68.4281 59,-78.4281 62.5001,-68.4281 55.5001,-68.4281"/>
</g>
</g>
</svg>
