<?xml version="1.0" encoding="UTF-8" standalone="no"?>
<!DOCTYPE svg PUBLIC "-//W3C//DTD SVG 1.1//EN"
 "http://www.w3.org/Graphics/SVG/1.1/DTD/svg11.dtd">
<!-- Generated by graphviz version 2.34.0 (20130910.2120)
 -->
<!-- Title: AppDelegate Pages: 1 -->
<svg width="219pt" height="84pt"
 viewBox="0.00 0.00 219.00 84.00" xmlns="http://www.w3.org/2000/svg" xmlns:xlink="http://www.w3.org/1999/xlink">
<g id="graph0" class="graph" transform="scale(1 1) rotate(0) translate(4 80)">
<title>AppDelegate</title>
<polygon fill="white" stroke="white" points="-4,4 -4,-80 215,-80 215,4 -4,4"/>
<!-- Node1 -->
<g id="node1" class="node"><title>Node1</title>
<polygon fill="#bfbfbf" stroke="black" points="56,-0.5 56,-19.5 130,-19.5 130,-0.5 56,-0.5"/>
<text text-anchor="middle" x="93" y="-7.5" font-family="Helvetica,sans-Serif" font-size="10.00">AppDelegate</text>
</g>
<!-- Node2 -->
<g id="node2" class="node"><title>Node2</title>
<polygon fill="white" stroke="#bfbfbf" points="-0.5,-56.5 -0.5,-75.5 72.5,-75.5 72.5,-56.5 -0.5,-56.5"/>
<text text-anchor="middle" x="36" y="-63.5" font-family="Helvetica,sans-Serif" font-size="10.00">UIResponder</text>
</g>
<!-- Node2&#45;&gt;Node1 -->
<g id="edge1" class="edge"><title>Node2&#45;&gt;Node1</title>
<path fill="none" stroke="midnightblue" d="M52.6215,-49.2533C62.734,-39.6731 75.2766,-27.7906 83.6753,-19.8339"/>
<polygon fill="midnightblue" stroke="midnightblue" points="50.0105,-46.9056 45.158,-56.324 54.8247,-51.9873 50.0105,-46.9056"/>
</g>
<!-- Node3 -->
<g id="node3" class="node"><title>Node3</title>
<polygon fill="white" stroke="#bfbfbf" points="90.5,-56.5 90.5,-75.5 211.5,-75.5 211.5,-56.5 90.5,-56.5"/>
<text text-anchor="middle" x="151" y="-63.5" font-family="Helvetica,sans-Serif" font-size="10.00">&lt;UIApplicationDelegate&gt;</text>
</g>
<!-- Node3&#45;&gt;Node1 -->
<g id="edge2" class="edge"><title>Node3&#45;&gt;Node1</title>
<path fill="none" stroke="midnightblue" d="M134.087,-49.2533C123.797,-39.6731 111.034,-27.7906 102.488,-19.8339"/>
<polygon fill="midnightblue" stroke="midnightblue" points="131.977,-52.0714 141.681,-56.324 136.747,-46.9481 131.977,-52.0714"/>
</g>
</g>
</svg>
